<svg width="33" height="32" viewBox="0 0 33 32" fill="none" xmlns="http://www.w3.org/2000/svg">
<path d="M22 4H11C7.20913 4 4.125 6.99067 4.125 10.6667V21.3333C4.125 25.0093 7.20913 28 11 28H22C25.7909 28 28.875 25.0093 28.875 21.3333V10.6667C28.875 6.99067 25.7909 4 22 4ZM26.125 21.3333C26.125 23.5387 24.2743 25.3333 22 25.3333H11C8.72575 25.3333 6.875 23.5387 6.875 21.3333V10.6667C6.875 8.46133 8.72575 6.66667 11 6.66667H22C24.2743 6.66667 26.125 8.46133 26.125 10.6667V21.3333Z" fill="black"/>
<path d="M16.5 9.33333C12.7091 9.33333 9.625 12.324 9.625 16C9.625 19.676 12.7091 22.6667 16.5 22.6667C20.2909 22.6667 23.375 19.676 23.375 16C23.375 12.324 20.2909 9.33333 16.5 9.33333ZM16.5 20C14.2257 20 12.375 18.2053 12.375 16C12.375 13.7947 14.2257 12 16.5 12C18.7743 12 20.625 13.7947 20.625 16C20.625 18.2053 18.7743 20 16.5 20ZM23.375 8C23.0103 8 22.6606 8.14048 22.4027 8.39052C22.1449 8.64057 22 8.97971 22 9.33333C22 9.68696 22.1449 10.0261 22.4027 10.2761C22.6606 10.5262 23.0103 10.6667 23.375 10.6667C23.7397 10.6667 24.0894 10.5262 24.3473 10.2761C24.6051 10.0261 24.75 9.68696 24.75 9.33333C24.75 8.97971 24.6051 8.64057 24.3473 8.39052C24.0894 8.14048 23.7397 8 23.375 8Z" fill="black"/>
</svg>
