<svg width="19" height="20" viewBox="0 0 19 20" fill="none" xmlns="http://www.w3.org/2000/svg">
<path d="M18.25 14.0551V16.6801C18.251 16.9238 18.2011 17.165 18.1034 17.3883C18.0058 17.6115 17.8626 17.812 17.6831 17.9767C17.5035 18.1415 17.2915 18.2669 17.0607 18.345C16.8298 18.423 16.5852 18.452 16.3425 18.4301C13.65 18.1375 11.0636 17.2175 8.79125 15.7438C6.6771 14.4004 4.88467 12.608 3.54125 10.4938C2.06248 8.21114 1.14222 5.6122 0.855003 2.90758C0.833137 2.66562 0.861893 2.42175 0.93944 2.19151C1.01699 1.96126 1.14163 1.74969 1.30542 1.57025C1.46922 1.39082 1.66858 1.24746 1.89082 1.14929C2.11306 1.05113 2.3533 1.00031 2.59625 1.00008H5.22125C5.6459 0.995905 6.05757 1.14628 6.37954 1.42318C6.70152 1.70007 6.91182 2.0846 6.97125 2.50508C7.08205 3.34514 7.28752 4.16997 7.58375 4.96383C7.70148 5.27702 7.72696 5.61738 7.65717 5.9446C7.58738 6.27182 7.42526 6.57218 7.19 6.81008L6.07875 7.92133C7.32436 10.1119 9.13815 11.9257 11.3288 13.1713L12.44 12.0601C12.6779 11.8248 12.9783 11.6627 13.3055 11.5929C13.6327 11.5231 13.9731 11.5486 14.2863 11.6663C15.0801 11.9626 15.9049 12.168 16.745 12.2788C17.17 12.3388 17.5582 12.5529 17.8357 12.8804C18.1132 13.2079 18.2607 13.626 18.25 14.0551Z" stroke="white" stroke-width="1.5" stroke-linecap="round" stroke-linejoin="round"/>
</svg>
