<svg width="23" height="23" viewBox="0 0 23 23" fill="none" xmlns="http://www.w3.org/2000/svg">
<path d="M21.9167 16.6248V19.7498C21.9179 20.0399 21.8584 20.327 21.7422 20.5928C21.626 20.8587 21.4555 21.0973 21.2418 21.2934C21.028 21.4895 20.7756 21.6388 20.5008 21.7318C20.226 21.8247 19.9348 21.8592 19.6458 21.8331C16.4405 21.4848 13.3615 20.3895 10.6563 18.6352C8.13942 17.0359 6.00557 14.902 4.40626 12.3852C2.64582 9.6677 1.55026 6.57373 1.20835 3.35394C1.18231 3.06589 1.21655 2.77557 1.30887 2.50147C1.40118 2.22737 1.54956 1.97549 1.74456 1.76188C1.93955 1.54827 2.17689 1.3776 2.44146 1.26074C2.70603 1.14387 2.99203 1.08338 3.28126 1.08311H6.40626C6.91179 1.07813 7.40188 1.25715 7.78518 1.58679C8.16848 1.91643 8.41884 2.3742 8.48959 2.87478C8.62149 3.87484 8.86611 4.85678 9.21876 5.80186C9.35891 6.1747 9.38924 6.57989 9.30616 6.96944C9.22309 7.35899 9.03008 7.71656 8.75001 7.99978L7.4271 9.32269C8.90997 11.9306 11.0692 14.0898 13.6771 15.5727L15 14.2498C15.2832 13.9697 15.6408 13.7767 16.0303 13.6936C16.4199 13.6105 16.8251 13.6409 17.1979 13.781C18.143 14.1337 19.1249 14.3783 20.125 14.5102C20.631 14.5816 21.0931 14.8364 21.4235 15.2263C21.7538 15.6162 21.9294 16.1139 21.9167 16.6248Z" stroke="black" stroke-width="2" stroke-linecap="round" stroke-linejoin="round"/>
</svg>
