<svg width="33" height="32" viewBox="0 0 33 32" fill="none" xmlns="http://www.w3.org/2000/svg">
<path d="M29.4938 4.50268C28.8269 3.94934 27.8314 3.84668 26.8331 4.22934C26.2144 4.46534 16.5193 8.42134 7.4814 12.1107L4.49628 13.3293C3.3399 13.784 2.75415 14.5213 2.75415 15.5173C2.75415 16.2147 3.0594 17.1627 4.5114 17.72L9.55352 19.676C9.9894 20.944 11.0014 23.888 11.2558 24.6707C11.407 25.1347 11.7893 26.304 12.7545 26.5773C12.9525 26.6427 13.1588 26.676 13.3691 26.676C13.9783 26.676 14.4169 26.4013 14.6314 26.2413L17.8338 23.6147L21.7264 27.104C21.8763 27.252 22.6683 28 23.7339 28C25.0635 28 26.0728 26.9267 26.2831 25.888C26.3973 25.3187 30.1496 7.04934 30.1496 7.05201C30.4865 5.58668 29.8829 4.82668 29.4938 4.50268ZM23.6033 25.1547L17.9149 20.0533L13.7486 23.4733C13.255 21.9973 11.9598 18.244 11.9598 18.244L11.759 17.6587L6.23015 15.5147L8.54977 14.5693C14.4609 12.156 24.9893 7.85868 27.3763 6.89601C26.8579 9.41601 24.0323 23.172 23.6033 25.1547Z" fill="#FBFDFF"/>
<path d="M23.1 10.6667C22.9281 10.6667 22.6958 10.8253 22.572 10.9C20.801 11.9707 11.9213 16.8707 9.48615 18.212C10.1723 18.4787 10.6563 18.6667 10.6563 18.6667C10.6563 18.6667 12.2389 23.26 12.5675 24.2667C12.8961 25.2747 13.1601 25.2987 13.1601 25.2987C13.233 25.3293 13.3045 25.3413 13.3705 25.3413C13.4241 25.3413 13.4613 25.3227 13.5066 25.3107L15.125 19.1667C15.125 19.1667 22.4991 11.9293 22.9433 11.508C23.3008 11.1707 23.375 11.052 23.375 10.9347C23.375 10.7787 23.2911 10.6667 23.1 10.6667Z" fill="#FBFDFF"/>
</svg>
